<?xml version="1.0" encoding="utf-8"?>
<!-- Generator: Adobe Illustrator 25.4.1, SVG Export Plug-In . SVG Version: 6.00 Build 0)  -->
<svg version="1.1" id="Layer_1" xmlns="http://www.w3.org/2000/svg" xmlns:xlink="http://www.w3.org/1999/xlink" x="0px" y="0px"
	 viewBox="0 0 2169.31 2000" style="enable-background:new 0 0 2169.31 2000;" xml:space="preserve">
<style type="text/css">
	.st0{fill:#BA584C;}
	.st1{font-family:'TeluguMN';}
	.st2{font-size:308.9641px;}
</style>
<g>
	<g>
		<polygon class="st0" points="295.59,1524.87 316.82,1533.49 622.95,1210.76 527.93,1088.63 		"/>
		<path class="st0" d="M1673.62,939.8c2.17-3.71,4.24-7.47,6.24-11.25c0.67-1.25,1.28-2.53,1.93-3.8c1.3-2.53,2.57-5.08,3.81-7.64
			c0.73-1.54,1.43-3.08,2.14-4.62c1.07-2.33,2.11-4.66,3.11-7.01c0.71-1.65,1.4-3.33,2.07-4.99c0.92-2.26,1.8-4.53,2.66-6.8
			c0.65-1.73,1.31-3.46,1.93-5.21c0.81-2.26,1.58-4.51,2.32-6.79c0.58-1.77,1.19-3.53,1.74-5.29c0.73-2.33,1.38-4.68,2.05-7.02
			c0.49-1.72,1.01-3.42,1.47-5.15c1.02-3.83,1.96-7.67,2.82-11.52c0.46-2.06,0.85-4.12,1.26-6.19c0.4-1.99,0.83-3.97,1.19-5.97
			c0.4-2.23,0.74-4.47,1.1-6.72c0.3-1.83,0.58-3.65,0.83-5.48c0.33-2.33,0.6-4.66,0.86-6.99c0.19-1.74,0.39-3.46,0.55-5.21
			c0.22-2.4,0.43-4.81,0.6-7.23c0.12-1.64,0.21-3.28,0.3-4.94c0.13-2.51,0.26-5,0.34-7.5c0.05-1.47,0.05-2.93,0.06-4.4
			c0.03-2.67,0.08-5.36,0.05-8.03c-0.02-0.8-0.05-1.61-0.08-2.41c-0.36-16.37-2.02-32.73-5.16-48.92l-14.62-75.24l-28.68-137.52
			c-52.04-227.65-238.37-276.63-238.37-276.63l115.7,440.4c-7.63-0.75-15.37-1.15-23.21-1.15c-0.92,0-1.83,0.06-2.75,0.06
			c0-0.06-766.76-0.06-766.76-0.06L477.67,487.99L403.39,381.7c-0.91-2.16-2.22-4.21-4.05-6.03c-7.66-7.61-20.83-8.26-29.4-1.47
			c-5.79,4.59-7.91,11.4-6.38,17.68l5.55,55.09L234.2,466.9l-0.22,0.26c-7.11,0.94-13.61,4.63-17.03,10.49
			c-1.59,2.7-2.32,5.56-2.34,8.39L68.75,515.24c-13.99,2.46-27.64,6.01-38.47,8.85c-24.92,6.54,15.04,71.41,40.24,79.62
			c7.66,2.51,13.64,3.8,18.39,4.13l171.69,50.36l289.48,388.82c-0.05,0.08,102.75,132.22,102.75,132.22l0.34-0.36l135.8,174.21
			l291.58,94.74l8.93-19.15L879.4,1318.34l-82.59-197.58l559.03-57.47c-0.22,1.77-0.36,3.57-0.36,5.4c0,1.53,0.1,3.04,0.26,4.51
			c-0.02,0-5.4,172.59-5.4,172.59l-190.46,279.08l21.23,8.62l277.42-244.77l92.89-138.41l-0.6-0.27l52.07-89.16L1673.62,939.8z"/>
		<path class="st0" d="M1977.75,1193.48l-177.16-232.93l-40.65-170l-0.18-0.11c-0.42,58.08-16.17,115.93-46.4,167.68l-73.15,125.25
			l236.91,142.85l254.82,315.22l14.98-15.9L1977.75,1193.48z"/>
	</g>
</g>
<text transform="matrix(0.9995 0 0 1 170.9497 1756.6835)" class="st0 st1 st2">ZEN PET SPA</text>
</svg>
